<svg width="15" height="12" viewBox="0 0 15 12" fill="none" xmlns="http://www.w3.org/2000/svg">
<path fill-rule="evenodd" clip-rule="evenodd" d="M10.1203 4.38587C10.5677 4.38587 10.9967 4.20817 11.313 3.89184C11.6293 3.57552 11.807 3.1465 11.807 2.69915C11.807 2.25181 11.6293 1.82279 11.313 1.50646C10.9967 1.19014 10.5677 1.01244 10.1203 1.01244C9.67297 1.01244 9.24394 1.19014 8.92762 1.50646C8.6113 1.82279 8.43359 2.25181 8.43359 2.69915C8.43359 3.1465 8.6113 3.57552 8.92762 3.89184C9.24394 4.20817 9.67297 4.38587 10.1203 4.38587ZM10.1203 5.3979C11.438 5.3979 12.535 4.45334 12.7718 3.20517H14.3371C14.4713 3.20517 14.6 3.15186 14.6949 3.05696C14.7898 2.96206 14.8431 2.83336 14.8431 2.69915C14.8431 2.56495 14.7898 2.43624 14.6949 2.34135C14.6 2.24645 14.4713 2.19314 14.3371 2.19314H12.7718C12.654 1.5762 12.3248 1.01965 11.8408 0.619331C11.3568 0.219017 10.7484 0 10.1203 0C9.49223 0 8.8838 0.219017 8.39982 0.619331C7.91583 1.01965 7.58659 1.5762 7.46879 2.19314H0.506016C0.371812 2.19314 0.243105 2.24645 0.148208 2.34135C0.0533121 2.43624 0 2.56495 0 2.69915C0 2.83336 0.0533121 2.96206 0.148208 3.05696C0.243105 3.15186 0.371812 3.20517 0.506016 3.20517H7.46879C7.58655 3.82209 7.9158 4.37863 8.3998 4.77888C8.8838 5.17914 9.49225 5.39805 10.1203 5.3979ZM7.28663 9.6147C7.10847 10.154 6.7648 10.6233 6.30451 10.956C5.84422 11.2887 5.29075 11.4678 4.72281 11.4678C4.15488 11.4678 3.6014 11.2887 3.14111 10.956C2.68082 10.6233 2.33716 10.154 2.159 9.6147H0.506016C0.371812 9.6147 0.243105 9.56139 0.148208 9.46649C0.0533121 9.3716 0 9.24289 0 9.10869C0 8.97448 0.0533121 8.84577 0.148208 8.75088C0.243105 8.65598 0.371812 8.60267 0.506016 8.60267H2.02946C2.07284 7.91782 2.37548 7.27522 2.87581 6.80557C3.37614 6.33593 4.03659 6.07452 4.72281 6.07452C5.40903 6.07452 6.06948 6.33593 6.56982 6.80557C7.07015 7.27522 7.37279 7.91782 7.41616 8.60267H14.3371C14.4713 8.60267 14.6 8.65598 14.6949 8.75088C14.7898 8.84577 14.8431 8.97448 14.8431 9.10869C14.8431 9.24289 14.7898 9.3716 14.6949 9.46649C14.6 9.56139 14.4713 9.6147 14.3371 9.6147H7.28663ZM6.40953 8.77134C6.40953 9.21869 6.23182 9.64771 5.9155 9.96403C5.59918 10.2804 5.17016 10.4581 4.72281 10.4581C4.27547 10.4581 3.84644 10.2804 3.53012 9.96403C3.2138 9.64771 3.03609 9.21869 3.03609 8.77134C3.03609 8.324 3.2138 7.89497 3.53012 7.57865C3.84644 7.26233 4.27547 7.08462 4.72281 7.08462C5.17016 7.08462 5.59918 7.26233 5.9155 7.57865C6.23182 7.89497 6.40953 8.324 6.40953 8.77134Z" fill="#4D4E58"/>
</svg>
