<svg width="12" height="6" viewBox="0 0 12 6" fill="none" xmlns="http://www.w3.org/2000/svg">
<path fill-rule="evenodd" clip-rule="evenodd" d="M0.112329 0.112777C0.184817 0.0405527 0.282974 0 0.385301 0C0.487628 0 0.585784 0.0405527 0.658273 0.112777L5.52409 4.9795L10.3917 0.112777C10.4651 0.0461216 10.5613 0.0102645 10.6604 0.0126415C10.7595 0.0150184 10.8539 0.0554468 10.924 0.125543C10.9941 0.195639 11.0345 0.290024 11.0369 0.389127C11.0393 0.488229 11.0034 0.584444 10.9368 0.65782L5.79752 5.79706C5.72507 5.86901 5.6271 5.90939 5.52499 5.90939C5.42289 5.90939 5.32492 5.86901 5.25247 5.79706L0.112329 0.65782C0.0403792 0.58537 0 0.487406 0 0.385298C0 0.283191 0.0403792 0.185227 0.112329 0.112777Z" fill="black" fill-opacity="0.54"/>
</svg>
