<svg width="15" height="14" viewBox="0 0 15 14" fill="none" xmlns="http://www.w3.org/2000/svg">
<path fill-rule="evenodd" clip-rule="evenodd" d="M13.7585 3.47083C13.8182 3.52778 13.8887 3.57216 13.9658 3.60133C14.0429 3.6305 14.1252 3.64387 14.2076 3.64064C14.29 3.63741 14.3709 3.61765 14.4455 3.58252C14.5202 3.5474 14.587 3.49764 14.642 3.43619C14.697 3.37474 14.7391 3.30287 14.7658 3.22483C14.7924 3.14679 14.8032 3.06418 14.7973 2.98192C14.7914 2.89965 14.7691 2.8194 14.7316 2.74594C14.6941 2.67249 14.6422 2.60731 14.579 2.5543L11.9049 0.156721C11.7918 0.0555747 11.6453 -0.000204075 11.4935 9.8825e-05C11.3418 0.000401725 11.1955 0.0567649 11.0828 0.158362L8.42427 2.55594C8.3623 2.60948 8.31163 2.67486 8.27525 2.74823C8.23887 2.82161 8.2175 2.90151 8.2124 2.98325C8.20729 3.06499 8.21855 3.14693 8.24552 3.22426C8.27249 3.30159 8.31463 3.37276 8.36946 3.4336C8.42429 3.49444 8.49071 3.54372 8.56484 3.57856C8.63896 3.61339 8.71929 3.63308 8.80112 3.63647C8.88295 3.63986 8.96463 3.62689 9.04138 3.5983C9.11813 3.56972 9.1884 3.5261 9.24808 3.47001L10.8793 1.9988V12.7863C10.8793 12.9495 10.9441 13.106 11.0595 13.2214C11.1749 13.3368 11.3315 13.4017 11.4947 13.4017C11.6579 13.4017 11.8144 13.3368 11.9298 13.2214C12.0452 13.106 12.1101 12.9495 12.1101 12.7863V1.99388L13.7585 3.47083ZM1.04035 9.93083C0.980699 9.87388 0.910206 9.8295 0.833063 9.80033C0.755919 9.77115 0.673699 9.75779 0.591288 9.76102C0.508876 9.76425 0.427955 9.78401 0.353332 9.81913C0.278709 9.85425 0.211907 9.90402 0.156895 9.96547C0.101884 10.0269 0.0597851 10.0988 0.0331006 10.1768C0.00641621 10.2549 -0.00430946 10.3375 0.00156089 10.4197C0.00743125 10.502 0.0297778 10.5823 0.0672729 10.6557C0.104768 10.7292 0.156647 10.7943 0.219826 10.8474L2.89474 13.2449C3.00787 13.3461 3.15439 13.4019 3.30614 13.4016C3.45789 13.4013 3.60418 13.3449 3.71691 13.2433L6.37541 10.8465C6.49271 10.7363 6.56213 10.5845 6.5688 10.4236C6.57546 10.2628 6.51884 10.1057 6.41107 9.98614C6.30329 9.86656 6.15295 9.79397 5.99229 9.78394C5.83162 9.77391 5.67342 9.82723 5.55161 9.93247L3.9204 11.4029V0.615395C3.9204 0.452182 3.85556 0.295654 3.74015 0.180245C3.62475 0.064836 3.46822 0 3.30501 0C3.14179 0 2.98526 0.064836 2.86986 0.180245C2.75445 0.295654 2.68961 0.452182 2.68961 0.615395V11.4086L1.04035 9.93083Z" fill="#4D4E58"/>
</svg>
