<?xml version="1.0" encoding="UTF-8"?>
<svg xmlns="http://www.w3.org/2000/svg" xmlns:xlink="http://www.w3.org/1999/xlink" width="2100" height="2101" viewBox="0 0 2100 2101">
<defs>
<clipPath id="clip-0">
<path clip-rule="nonzero" d="M 0 0.171875 L 2100 0.171875 L 2100 2100.171875 L 0 2100.171875 Z M 0 0.171875 "/>
</clipPath>
<clipPath id="clip-1">
<path clip-rule="nonzero" d="M 614 631 L 2100 631 L 2100 2100.171875 L 614 2100.171875 Z M 614 631 "/>
</clipPath>
<clipPath id="clip-2">
<path clip-rule="nonzero" d="M 1667 1973 L 1757 1973 L 1757 2100.171875 L 1667 2100.171875 Z M 1667 1973 "/>
</clipPath>
</defs>
<g clip-path="url(#clip-0)">
<path fill-rule="evenodd" fill="rgb(100%, 100%, 100%)" fill-opacity="1" d="M 2100 0.171875 L 0 0.171875 L 0 2100.171875 L 2100 2100.171875 L 2100 0.171875 "/>
</g>
<g clip-path="url(#clip-1)">
<path fill-rule="evenodd" fill="rgb(0%, 0%, 0%)" fill-opacity="1" d="M 1087.441406 1282.945312 C 1087.441406 1282.945312 1093.488281 1244.945312 1057.691406 1211.941406 C 1021.828125 1178.945312 881.050781 1166.675781 846.753906 1100.96875 C 812.457031 1035.210938 921.027344 1133.863281 1007.339844 1159.488281 C 1093.589844 1185.125 1115.261719 1168.703125 1089.128906 1146.667969 C 1063.03125 1124.625 915.378906 1057.089844 880.878906 1004.601562 C 846.375 952.101562 884.972656 1003.890625 954.140625 1050.96875 C 1023.289062 1098.019531 1098.980469 1134.734375 1105.710938 1121.089844 C 1112.460938 1107.433594 983.601562 988.859375 883.871094 888.820312 C 784.164062 788.808594 590.960938 659 616.960938 635.640625 C 642.96875 612.289062 690.90625 704.261719 832.765625 804.398438 C 974.605469 904.519531 963.609375 885.648438 1001.769531 961.761719 C 1039.941406 1037.800781 1148.460938 1139.398438 1157.171875 1091.300781 C 1165.890625 1043.191406 1160.199219 936.921875 1115.121094 896.78125 C 1070.070312 856.679688 1157.070312 785.671875 1165.539062 894.171875 C 1173.988281 1002.691406 1198.28125 1087.539062 1258.398438 1085.671875 C 1318.53125 1083.800781 1320.320312 1072.890625 1315.03125 1036.890625 C 1309.769531 1000.921875 1413.308594 1056.019531 1416.578125 1012.328125 C 1419.851562 968.691406 1503.878906 1045.039062 1509.929688 1017.398438 C 1516.011719 989.730469 1477.921875 938.75 1435.898438 887.628906 C 1393.820312 836.519531 1448.519531 798.488281 1494.96875 897.488281 C 1541.398438 996.519531 1568.121094 1039.171875 1607.910156 1040.46875 C 1647.710938 1041.761719 1683.289062 898.941406 1725.191406 885.019531 C 1767.078125 871.109375 1773.710938 867.5 1794.148438 901.261719 C 1814.601562 935.03125 1813.300781 884.070312 1851.308594 871.300781 C 1889.25 858.519531 1913.691406 924.261719 1862.941406 920.039062 C 1812.210938 915.871094 1790.160156 954.628906 1814.890625 982.171875 C 1839.648438 1009.730469 1886.980469 927.53125 1939.320312 910.121094 C 1991.679688 892.75 2140.03125 786.148438 2173.230469 747.449219 C 2206.480469 708.71875 2217.101562 758.421875 2164.289062 782.160156 C 2111.441406 805.929688 2008.519531 880.550781 1971.191406 931.878906 C 1933.828125 983.179688 2112.050781 861.640625 2183.929688 817.808594 C 2255.800781 774 2238.859375 744.78125 2296.671875 760.988281 C 2354.480469 777.199219 2335.269531 735.210938 2380.128906 754.160156 C 2424.980469 773.140625 2340.75 830.609375 2304.25 778.480469 C 2283 748.140625 2291.949219 800.890625 2235.511719 853.539062 C 2179.039062 906.21875 2040.300781 978.648438 2055.820312 998.710938 C 2071.28125 1018.78125 2131.289062 950.328125 2201.410156 921.308594 C 2271.558594 892.320312 2281.089844 895.890625 2312.148438 882.539062 C 2343.21875 869.210938 2312.078125 892.339844 2285.449219 916.25 C 2258.871094 940.128906 2300.148438 938.230469 2250.75 969.210938 C 2201.410156 1000.191406 2030.429688 1112.808594 2056.851562 1131.757812 C 2185.589844 1223.921875 2254.429688 1467.609375 2233.558594 1517.226562 C 2223.710938 1540.683594 2103.019531 1467.441406 2033.640625 1594.730469 C 2016.308594 1626.566406 2002.820312 1701.011719 2044.21875 1716.757812 C 2096.691406 1736.707031 2177.351562 1749.769531 2208.058594 1743.503906 C 2290.230469 1726.773438 2236.070312 1799.546875 2205.140625 1780.550781 C 2174.269531 1761.5625 2065.761719 1737.652344 2013.300781 1743.097656 C 1960.828125 1748.507812 1889.21875 1740.382812 1894.878906 1753.371094 C 1916.320312 1802.667969 1903.421875 1792.460938 1869.71875 1792.394531 C 1836.011719 1792.316406 1773.078125 1814.722656 1803.371094 1833.003906 C 1833.648438 1851.34375 1871.058594 1842.351562 1903.878906 1867.882812 C 1936.691406 1893.410156 1963.171875 1884.78125 1999.988281 1882.054688 C 2036.78125 1879.359375 2124.578125 1906.644531 2094.839844 1908.734375 C 2065.050781 1910.832031 2003.109375 1879.253906 1977.929688 1901.871094 C 1952.738281 1924.484375 1913.070312 1908.941406 1878.21875 1883.335938 C 1843.398438 1857.746094 1803.890625 1853.417969 1783.089844 1872.097656 C 1762.300781 1890.765625 1865.53125 2029.914062 1938.050781 2020.425781 C 2010.589844 2010.914062 1955 2103.140625 1906.308594 2048.929688 C 1857.621094 1994.710938 1805.441406 1996.089844 1783.910156 1956.65625 C 1762.328125 1917.257812 1696.191406 1900.828125 1681.050781 1925.800781 C 1665.910156 1950.769531 1673.789062 1968.359375 1653.699219 1950.367188 C 1633.578125 1932.40625 1576.558594 1998.804688 1621.589844 2024.738281 C 1666.589844 2050.648438 1486.648438 2299.460938 1509.429688 2322.628906 C 1532.179688 2345.769531 1671.269531 2452.175781 1656.460938 2473.089844 C 1641.578125 2493.988281 1609.089844 2451.171875 1583.621094 2422.8125 C 1558.171875 2394.484375 1512.480469 2370.050781 1491.988281 2319.3125 C 1471.570312 2268.578125 1479.25 2257.320312 1451.140625 2237.078125 C 1423.050781 2216.8125 1393.070312 2194.421875 1374.351562 2226.429688 C 1355.609375 2258.40625 1339.558594 2295.566406 1288.699219 2320.410156 C 1237.808594 2345.230469 1203.960938 2402.203125 1209.871094 2459.4375 C 1215.78125 2516.671875 1151.019531 2618.46875 1142.179688 2586.613281 C 1133.308594 2554.722656 1169.410156 2509.0625 1155.710938 2473.972656 C 1141.988281 2438.882812 1122.421875 2454.550781 1157.738281 2405.765625 C 1193.03125 2357.019531 1286.058594 2260.1875 1267.519531 2235.167969 C 1248.960938 2210.121094 1116.460938 2183.945312 1082.429688 2190.792969 C 1048.421875 2197.652344 980.195312 2231.757812 959.730469 2219.316406 C 939.265625 2206.824219 1032.210938 2176.175781 1033.269531 2153.269531 C 1034.308594 2130.339844 892.941406 2186.191406 872.289062 2249.226562 C 851.601562 2312.230469 844.34375 2238.765625 856.03125 2210.472656 C 867.734375 2182.210938 962.324219 2121.488281 923.507812 2050.277344 C 905.46875 2017.175781 1056.46875 2068.988281 1099.648438 2003.523438 C 1142.839844 1938.058594 1124 1855.179688 1086.390625 1885.558594 C 1048.789062 1915.933594 956.4375 1892.210938 975.902344 1845.078125 C 995.402344 1797.964844 987.773438 1792.964844 941.328125 1816.925781 C 894.851562 1840.867188 892.3125 1896.503906 854.519531 1868.210938 C 816.738281 1839.917969 861.761719 1814.308594 915.347656 1801.738281 C 968.9375 1789.15625 977.105469 1722.570312 947.421875 1692.949219 C 917.746094 1663.335938 781.234375 1611.152344 731.976562 1587.261719 C 682.722656 1563.363281 745.617188 1554.285156 809.132812 1600.921875 C 872.648438 1647.558594 946.652344 1681.796875 976.710938 1663.675781 C 1006.78125 1645.550781 997.671875 1616.359375 975.203125 1609.328125 C 952.734375 1602.355469 966.375 1566.839844 990.324219 1589.011719 C 1014.25 1611.148438 1041.421875 1618.789062 1052.121094 1601.421875 C 1062.828125 1584.050781 1039.660156 1586.417969 1039.539062 1567.117188 C 1039.410156 1547.796875 1049.988281 1581.007812 1071.210938 1569.714844 C 1092.449219 1558.402344 1075.691406 1544.648438 1069.621094 1520.976562 C 1063.558594 1497.304688 1026.550781 1503.0625 1035.949219 1470.335938 C 1045.410156 1437.613281 1041.660156 1382.734375 1015.148438 1364.453125 C 988.632812 1346.230469 847.597656 1347.472656 810.484375 1334.320312 C 773.335938 1321.183594 813.613281 1321.40625 844.730469 1327.839844 C 875.828125 1334.304688 940.515625 1342.898438 968.261719 1336.203125 C 995.96875 1329.496094 997.636719 1321.9375 1027.238281 1333.773438 C 1056.839844 1345.613281 1071.300781 1306.800781 1087.441406 1282.945312 "/>
</g>
<g clip-path="url(#clip-2)">
<path fill-rule="evenodd" fill="rgb(0%, 0%, 0%)" fill-opacity="1" d="M 1724.941406 2199.703125 C 1724.941406 2199.703125 1758.988281 2208.617188 1756.53125 2176.761719 C 1754.089844 2144.886719 1756.308594 2144.691406 1745.789062 2127.414062 C 1735.289062 2110.164062 1730.421875 2089.769531 1730.351562 2071.882812 C 1730.308594 2053.957031 1707.609375 2060.460938 1700.601562 2030.523438 C 1693.519531 2000.578125 1687.5 2010.617188 1682.019531 1996.460938 C 1676.53125 1982.304688 1680.941406 1970.003906 1671.058594 1974.144531 C 1661.210938 1978.265625 1672.308594 1999.015625 1685.769531 2012.066406 C 1699.230469 2025.109375 1706.910156 2054.773438 1696.679688 2065.8125 C 1686.46875 2076.800781 1651.589844 2083.886719 1679.078125 2109.046875 C 1689.761719 2118.804688 1706.730469 2103.453125 1703.140625 2092.222656 C 1699.570312 2081.027344 1719.039062 2078.105469 1727.109375 2100.878906 C 1735.191406 2123.652344 1743.121094 2132.304688 1736.53125 2150.765625 C 1729.941406 2169.226562 1709.839844 2184.367188 1724.941406 2199.703125 "/>
</g>
<path fill-rule="evenodd" fill="rgb(0%, 0%, 0%)" fill-opacity="1" d="M 1391.960938 933.761719 C 1391.960938 933.761719 1266.789062 703.648438 1290.390625 685.429688 C 1313.988281 667.199219 1313.910156 728.160156 1348.011719 768.058594 C 1382.109375 807.988281 1421.609375 960.71875 1391.960938 933.761719 "/>
<path fill-rule="evenodd" fill="rgb(0%, 0%, 0%)" fill-opacity="1" d="M 1842.789062 631.238281 C 1842.789062 631.238281 1831.710938 664.199219 1813.441406 670.089844 C 1795.171875 675.960938 1782.449219 683.921875 1793.28125 709.789062 C 1804.121094 735.679688 1801.171875 818.558594 1741.738281 815.300781 C 1682.28125 812.039062 1709.410156 710.558594 1741.871094 673.820312 C 1774.320312 637.101562 1740.78125 645.578125 1730.519531 617.210938 C 1720.269531 588.839844 1770.78125 496.808594 1802.171875 506.789062 C 1833.558594 516.769531 1816.371094 550.890625 1829.578125 572.128906 C 1842.808594 593.371094 1844.691406 597.410156 1842.789062 631.238281 "/>
<path fill-rule="evenodd" fill="rgb(0%, 0%, 0%)" fill-opacity="1" d="M 1963.910156 879.75 C 1963.910156 879.75 1957.808594 908.46875 1946.5 900.609375 C 1935.160156 892.761719 1935.808594 879.179688 1943.421875 874.410156 C 1951 869.660156 1961.179688 870.421875 1963.910156 879.75 "/>
<path fill-rule="evenodd" fill="rgb(0%, 0%, 0%)" fill-opacity="1" d="M 1963.890625 757.378906 C 1963.890625 757.378906 1972.058594 833.058594 1923.53125 826.761719 C 1875.011719 820.449219 1861.878906 780.121094 1877.078125 739.050781 C 1892.289062 698.011719 1953.789062 712.140625 1963.890625 757.378906 "/>
</svg>
